<svg aria-hidden="true" style="position: absolute; width: 0; height: 0; overflow: hidden;" version="1.1" xmlns="http://www.w3.org/2000/svg" xmlns:xlink="http://www.w3.org/1999/xlink">
<defs>
<symbol id="icon-playlist" viewBox="0 0 20 20">
<path d="M16 17c0 1.657-1.343 3-3 3v0h-2c-1.657 0-3-1.343-3-3s1.343-3 3-3v0h2c0.001 0 0.003 0 0.004 0 0.357 0 0.699 0.062 1.016 0.177l-0.021-0.007v-13.17l6-1v4l-4 0.67v12.33zM0 3h12v2h-12v-2zM0 7h12v2h-12v-2zM0 11h12v2h-12v-2zM0 15h6v2h-6v-2z"></path>
</symbol>
<symbol id="icon-notifications_none" viewBox="0 0 24 24">
<path d="M15.984 17.016v-6q0-1.922-1.078-3.211t-2.906-1.289-2.906 1.289-1.078 3.211v6h7.969zM18 15.984l2.016 2.016v0.984h-16.031v-0.984l2.016-2.016v-4.969q0-2.344 1.195-4.078t3.305-2.25v-0.703q0-0.609 0.422-1.055t1.078-0.445 1.078 0.445 0.422 1.055v0.703q2.109 0.516 3.305 2.25t1.195 4.078v4.969zM12 21.984q-0.797 0-1.406-0.586t-0.609-1.383h4.031q0 0.797-0.609 1.383t-1.406 0.586z"></path>
</symbol>
<symbol id="icon-photo_album" viewBox="0 0 24 24">
<path d="M6 18.984h12l-3.844-5.109-3 3.844-2.156-2.578zM6 3.984v8.016l2.484-1.5 2.531 1.5v-8.016h-5.016zM18 2.016q0.797 0 1.406 0.586t0.609 1.383v16.031q0 0.797-0.609 1.383t-1.406 0.586h-12q-0.797 0-1.406-0.586t-0.609-1.383v-16.031q0-0.797 0.609-1.383t1.406-0.586h12z"></path>
</symbol>
<symbol id="icon-podcast" viewBox="0 0 32 32">
<path d="M32 16c0-8.837-7.163-16-16-16s-16 7.163-16 16c0 6.877 4.339 12.739 10.428 15.002l-0.428 0.998h12l-0.428-0.998c6.089-2.263 10.428-8.125 10.428-15.002zM15.212 19.838c-0.713-0.306-1.212-1.014-1.212-1.838 0-1.105 0.895-2 2-2s2 0.895 2 2c0 0.825-0.499 1.533-1.212 1.839l-0.788-1.839-0.788 1.838zM16.821 19.915c1.815-0.379 3.179-1.988 3.179-3.915 0-2.209-1.791-4-4-4s-4 1.791-4 4c0 1.928 1.364 3.535 3.18 3.913l-2.332 5.441c-2.851-1.223-4.848-4.056-4.848-7.355 0-4.418 3.582-8.375 8-8.375s8 3.957 8 8.375c0 3.299-1.997 6.131-4.848 7.355l-2.331-5.439zM21.514 30.866l-2.31-5.39c3.951-1.336 6.796-5.073 6.796-9.476 0-5.523-4.477-10-10-10s-10 4.477-10 10c0 4.402 2.845 8.14 6.796 9.476l-2.31 5.39c-4.987-2.14-8.481-7.095-8.481-12.866 0-7.729 6.266-14.37 13.995-14.37s13.995 6.641 13.995 14.37c0 5.771-3.494 10.726-8.481 12.866z"></path>
</symbol>
<symbol id="icon-mic" viewBox="0 0 32 32">
<path d="M15 22c2.761 0 5-2.239 5-5v-12c0-2.761-2.239-5-5-5s-5 2.239-5 5v12c0 2.761 2.239 5 5 5zM22 14v3c0 3.866-3.134 7-7 7s-7-3.134-7-7v-3h-2v3c0 4.632 3.5 8.447 8 8.944v4.056h-4v2h10v-2h-4v-4.056c4.5-0.497 8-4.312 8-8.944v-3h-2z"></path>
</symbol>
<symbol id="icon-folder" viewBox="0 0 32 32">
<path d="M14 4l4 4h14v22h-32v-26z"></path>
</symbol>
<symbol id="icon-folder-plus" viewBox="0 0 32 32">
<path d="M18 8l-4-4h-14v26h32v-22h-14zM22 22h-4v4h-4v-4h-4v-4h4v-4h4v4h4v4z"></path>
</symbol>
<symbol id="icon-compass2" viewBox="0 0 32 32">
<path d="M16 0c-8.837 0-16 7.163-16 16s7.163 16 16 16 16-7.163 16-16-7.163-16-16-16zM3 16c0-7.18 5.82-13 13-13 3.424 0 6.538 1.325 8.86 3.488l-12.86 5.512-5.512 12.86c-2.164-2.322-3.488-5.436-3.488-8.86zM18.286 18.286l-8.003 3.43 3.43-8.003 4.573 4.573zM16 29c-3.424 0-6.539-1.325-8.86-3.488l12.86-5.512 5.512-12.86c2.164 2.322 3.488 5.436 3.488 8.86 0 7.18-5.82 13-13 13z"></path>
</symbol>
<symbol id="icon-history" viewBox="0 0 34 32">
<path d="M20 2c7.732 0 14 6.268 14 14s-6.268 14-14 14v-3c2.938 0 5.701-1.144 7.778-3.222s3.222-4.84 3.222-7.778c0-2.938-1.144-5.701-3.222-7.778s-4.84-3.222-7.778-3.222c-2.938 0-5.701 1.144-7.778 3.222-1.598 1.598-2.643 3.601-3.041 5.778h5.819l-7 8-7-8h5.143c0.971-6.784 6.804-12 13.857-12zM26 14v4h-8v-10h4v6z"></path>
</symbol>
<symbol id="icon-search" viewBox="0 0 32 32">
<path d="M31.008 27.231l-7.58-6.447c-0.784-0.705-1.622-1.029-2.299-0.998 1.789-2.096 2.87-4.815 2.87-7.787 0-6.627-5.373-12-12-12s-12 5.373-12 12 5.373 12 12 12c2.972 0 5.691-1.081 7.787-2.87-0.031 0.677 0.293 1.515 0.998 2.299l6.447 7.58c1.104 1.226 2.907 1.33 4.007 0.23s0.997-2.903-0.23-4.007zM12 20c-4.418 0-8-3.582-8-8s3.582-8 8-8 8 3.582 8 8-3.582 8-8 8z"></path>
</symbol>
<symbol id="icon-cog" viewBox="0 0 32 32">
<path d="M29.181 19.070c-1.679-2.908-0.669-6.634 2.255-8.328l-3.145-5.447c-0.898 0.527-1.943 0.829-3.058 0.829-3.361 0-6.085-2.742-6.085-6.125h-6.289c0.008 1.044-0.252 2.103-0.811 3.070-1.679 2.908-5.411 3.897-8.339 2.211l-3.144 5.447c0.905 0.515 1.689 1.268 2.246 2.234 1.676 2.903 0.672 6.623-2.241 8.319l3.145 5.447c0.895-0.522 1.935-0.82 3.044-0.82 3.35 0 6.067 2.725 6.084 6.092h6.289c-0.003-1.034 0.259-2.080 0.811-3.038 1.676-2.903 5.399-3.894 8.325-2.219l3.145-5.447c-0.899-0.515-1.678-1.266-2.232-2.226zM16 22.479c-3.578 0-6.479-2.901-6.479-6.479s2.901-6.479 6.479-6.479c3.578 0 6.479 2.901 6.479 6.479s-2.901 6.479-6.479 6.479z"></path>
</symbol>
<symbol id="icon-heart" viewBox="0 0 32 32">
<path d="M23.6 2c-3.363 0-6.258 2.736-7.599 5.594-1.342-2.858-4.237-5.594-7.601-5.594-4.637 0-8.4 3.764-8.4 8.401 0 9.433 9.516 11.906 16.001 21.232 6.13-9.268 15.999-12.1 15.999-21.232 0-4.637-3.763-8.401-8.4-8.401z"></path>
</symbol>
<symbol id="icon-plus" viewBox="0 0 32 32">
<path d="M31 12h-11v-11c0-0.552-0.448-1-1-1h-6c-0.552 0-1 0.448-1 1v11h-11c-0.552 0-1 0.448-1 1v6c0 0.552 0.448 1 1 1h11v11c0 0.552 0.448 1 1 1h6c0.552 0 1-0.448 1-1v-11h11c0.552 0 1-0.448 1-1v-6c0-0.552-0.448-1-1-1z"></path>
</symbol>
<symbol id="icon-play3" viewBox="0 0 32 32">
<path d="M6 4l20 12-20 12z"></path>
</symbol>
<symbol id="icon-pause2" viewBox="0 0 32 32">
<path d="M4 4h10v24h-10zM18 4h10v24h-10z"></path>
</symbol>
<symbol id="icon-previous2" viewBox="0 0 32 32">
<path d="M8 28v-24h4v11l10-10v22l-10-10v11z"></path>
</symbol>
<symbol id="icon-next2" viewBox="0 0 32 32">
<path d="M24 4v24h-4v-11l-10 10v-22l10 10v-11z"></path>
</symbol>
<symbol id="icon-volume-medium" viewBox="0 0 32 32">
<path d="M22.485 25.985c-0.384 0-0.768-0.146-1.061-0.439-0.586-0.586-0.586-1.535 0-2.121 4.094-4.094 4.094-10.755 0-14.849-0.586-0.586-0.586-1.536 0-2.121s1.536-0.586 2.121 0c2.55 2.55 3.954 5.94 3.954 9.546s-1.404 6.996-3.954 9.546c-0.293 0.293-0.677 0.439-1.061 0.439v0zM17.157 23.157c-0.384 0-0.768-0.146-1.061-0.439-0.586-0.586-0.586-1.535 0-2.121 2.534-2.534 2.534-6.658 0-9.192-0.586-0.586-0.586-1.536 0-2.121s1.535-0.586 2.121 0c3.704 3.704 3.704 9.731 0 13.435-0.293 0.293-0.677 0.439-1.061 0.439z"></path>
<path d="M13 30c-0.26 0-0.516-0.102-0.707-0.293l-7.707-7.707h-3.586c-0.552 0-1-0.448-1-1v-10c0-0.552 0.448-1 1-1h3.586l7.707-7.707c0.286-0.286 0.716-0.372 1.090-0.217s0.617 0.519 0.617 0.924v26c0 0.404-0.244 0.769-0.617 0.924-0.124 0.051-0.254 0.076-0.383 0.076z"></path>
</symbol>
<symbol id="icon-loop" viewBox="0 0 32 32">
<path d="M4 10h20v6l8-8-8-8v6h-24v12h4zM28 22h-20v-6l-8 8 8 8v-6h24v-12h-4z"></path>
</symbol>
<symbol id="icon-shuffle" viewBox="0 0 32 32">
<path d="M24 22h-3.172l-5-5 5-5h3.172v5l7-7-7-7v5h-4c-0.53 0-1.039 0.211-1.414 0.586l-5.586 5.586-5.586-5.586c-0.375-0.375-0.884-0.586-1.414-0.586h-6v4h5.172l5 5-5 5h-5.172v4h6c0.53 0 1.039-0.211 1.414-0.586l5.586-5.586 5.586 5.586c0.375 0.375 0.884 0.586 1.414 0.586h4v5l7-7-7-7v5z"></path>
</symbol>
<symbol id="icon-radio-checked" viewBox="0 0 32 32">
<path d="M16 0c-8.837 0-16 7.163-16 16s7.163 16 16 16 16-7.163 16-16-7.163-16-16-16zM16 28c-6.627 0-12-5.373-12-12s5.373-12 12-12c6.627 0 12 5.373 12 12s-5.373 12-12 12zM10 16c0-3.314 2.686-6 6-6s6 2.686 6 6c0 3.314-2.686 6-6 6s-6-2.686-6-6z"></path>
</symbol>
</defs>
</svg>
